<?xml version="1.0" standalone="no"?><!DOCTYPE svg PUBLIC "-//W3C//DTD SVG 1.1//EN" "http://www.w3.org/Graphics/SVG/1.1/DTD/svg11.dtd"><svg t="1524298514144" class="icon" style="" viewBox="0 0 1024 1024" version="1.1" xmlns="http://www.w3.org/2000/svg" p-id="3082" xmlns:xlink="http://www.w3.org/1999/xlink" width="200" height="200"><defs><style type="text/css"></style></defs><path d="M457.319 265.25q-5.571 0.518-7.839 5.313t-4.308 4.794q-2.527 0.518-2.527-2.527 0-6.057 9.62-7.579h5.054zM501.37 272.344q-2.041 0.518-5.83-3.305t-8.842-2.268q12.147-5.571 16.195 1.004 1.522 3.045-1.522 4.567zM323.711 488.419q-2.041-0.518-3.045 1.522t-2.268 6.315-2.787 6.834-5.054 6.574q-3.531 5.054-0.518 6.057 2.041 0.518 6.316-3.531t6.315-9.101q0.518-1.522 1.004-3.531t1.004-3.045 0.744-2.268 0.26-2.041v-1.522t-0.518-1.262-1.522-1.004zM756.442 670.127q0-9.101-27.823-21.248 2.041-7.579 3.789-13.928t2.527-13.15 1.522-10.883 0.26-11.402-0.518-9.879-1.782-11.142-2.041-10.364-2.527-12.665-2.787-13.41q-5.054-24.293-23.775-52.115t-36.439-37.961q12.147 10.138 28.86 42.010 44.017 81.98 27.338 140.702-5.571 20.243-25.296 21.248-15.677 2.041-19.499-9.361t-4.049-42.269-5.83-54.156q-4.567-19.725-9.879-34.916t-9.879-23.030-7.839-12.406-6.574-7.579-3.789-3.531q-7.092-31.387-15.677-52.115t-14.933-28.341-11.888-16.712-7.579-20.243q-2.041-10.623 3.045-27.078t2.268-25.039-22.511-12.665q-7.579-1.522-22.511-9.101t-17.977-8.098q-4.049-0.518-5.571-13.15t4.049-25.814 18.203-13.669q18.721-1.522 25.814 15.191t2.041 29.344q-5.571 9.62-1.004 13.41t15.191 0.26q6.574-2.041 6.574-18.203v-18.721q-2.527-15.191-6.834-25.296t-10.623-15.45-11.888-7.579-13.669-3.789q-54.156 4.049-45.054 67.824 0 7.579-0.518 7.579-4.566-4.566-14.933-5.313t-16.712 0.26-7.838-2.527q0.518-28.86-8.098-45.541t-22.77-17.199q-13.669-0.518-20.99 13.928t-8.357 30.122q-0.518 7.579 1.782 18.721t6.574 18.981 7.839 6.834q5.054-1.522 8.098-7.092 2.041-4.567-3.531-4.049-3.531 0-7.839-7.352t-4.794-16.94q-0.518-11.142 4.567-18.721t17.199-7.092q8.616 0 13.669 10.623t4.794 19.725-0.744 11.142q-11.141 7.579-15.677 14.673-4.049 6.057-13.928 11.888t-10.364 6.316q-6.574 7.092-7.839 13.669t3.789 9.101q7.092 4.049 12.665 9.879t8.098 9.62 9.361 6.574 17.977 3.305q23.775 1.004 51.63-7.579 1.004-0.518 11.629-3.531t17.458-5.313 14.933-6.574 10.623-8.842q4.567-7.092 10.138-4.049 2.527 1.522 3.305 4.308t-1.522 6.057-8.357 4.794q-10.138 3.045-28.6 10.883t-23.030 9.879q-22.285 9.62-35.435 11.629-12.665 2.527-39.969-1.004-5.054-1.004-4.567 1.004t8.616 9.62q12.665 11.629 33.913 11.142 8.616-0.518 18.203-3.531t18.203-7.092 16.94-8.842 15.191-8.616 12.406-6.057 8.842-1.262 4.308 5.571q0 1.004-0.518 2.268t-2.041 2.527-3.045 2.268-4.308 2.527-4.566 2.268-5.054 2.527-4.794 2.268q-14.187 7.092-34.172 22.285t-33.654 21.766-24.812 0.518q-10.623-5.571-31.871-36.958-11.141-15.677-12.665-11.141-0.518 1.522-0.518 5.054 0 12.665-7.579 28.6t-14.933 28.082-10.623 29.344 5.83 31.871q-11.629 3.045-31.645 45.541t-24.034 71.355q-1.004 9.101-0.744 34.916t-2.787 29.863q-4.049 12.147-14.673 1.522-16.194-15.677-18.203-47.581-1.004-14.187 2.041-28.341 2.041-9.62-0.518-9.101l-2.041 2.527q-18.203 32.909 5.054 84.019 2.527 6.057 12.665 14.187t12.147 10.138q10.138 11.629 52.634 45.8t47.064 38.706q8.098 7.579 8.842 19.239t-7.092 21.766-23.030 11.629q4.049 7.579 14.673 22.511t14.187 27.338 3.531 35.693q23.288-12.147 3.531-46.545-2.041-4.049-5.312-8.098t-4.794-6.057-1.004-3.045q1.522-2.527 6.574-4.794t10.138 1.262q23.288 26.301 84.019 18.203 67.306-7.579 89.592-44.017 11.629-19.239 17.199-15.191 6.057 3.045 5.054 26.301-0.518 12.665-11.629 46.545-4.567 11.629-3.045 18.981t12.147 7.838q1.522-9.62 7.352-38.964t6.834-45.541q1.004-10.623-3.305-37.185t-3.789-49.102 11.629-35.693q7.579-9.101 25.814-9.101 0.518-18.721 17.459-26.819t36.698-5.313 30.382 11.402zM438.598 251.582q1.522-8.616-1.262-15.191t-5.83-7.579q-4.567-1.004-4.567 3.531 1.004 2.527 2.527 3.045 5.054 0 3.531 7.579-1.522 10.138 4.049 10.138 1.522 0 1.522-1.522zM650.656 351.278q-1.004-4.049-3.305-5.83t-6.574-2.527-7.352-2.787q-2.527-1.522-4.794-4.049t-3.531-4.049-2.787-3.305-2.041-2.041-2.041 0.744q-7.092 8.098 3.531 22.026t19.725 15.936q4.567 0.518 7.352-4.049t1.782-10.138zM560.58 243.484q0-5.571-2.527-9.879t-5.571-6.316-4.566-1.522q-7.092 0.518-3.531 3.531l2.041 1.004q7.092 2.041 9.101 15.677 0 1.522 4.049-1.004zM587.916 125.553q0-1.004-1.262-2.527t-4.567-3.531-4.794-3.045q-7.579-7.579-12.147-7.579-4.567 0.518-5.83 3.789t-0.518 6.574-0.26 6.316q-0.518 2.041-3.045 5.313t-3.045 4.566 1.522 4.308q2.041 1.522 4.049 0t5.571-4.567 7.579-4.566q0.518-0.518 4.566-0.518t7.579-1.004 4.567-3.531zM873.856 804.253q10.138 6.057 15.677 12.406t6.057 12.147-1.262 11.402-7.839 11.142-11.888 9.879-15.191 9.361-15.936 8.357-16.194 7.838-13.669 6.574q-19.239 9.62-43.273 28.341t-38.22 32.39q-8.616 8.098-34.399 9.879t-45.054-7.352q-9.101-4.567-14.933-11.888t-8.357-12.891-11.142-9.879-23.774-4.794q-22.285-0.518-65.785-0.518-9.62 0-28.86 0.744t-29.344 1.262q-22.285 0.518-40.229 7.579t-27.079 15.191-22.026 14.414-27.079 5.83q-14.673-0.518-56.165-15.677t-73.882-21.766q-9.62-2.041-25.814-4.794t-25.296-4.566-19.984-4.794-16.94-7.352-8.616-9.879q-5.054-11.629 3.531-33.654t9.101-27.597q0.518-8.098-2.041-20.243t-5.054-21.508-2.268-18.462 5.313-13.669q7.092-6.057 28.86-7.092t30.381-6.057q15.191-9.101 21.248-17.717t6.057-25.814q10.623 36.958-16.194 53.639-16.194 10.138-42.010 7.579-17.199-1.522-21.766 5.054-6.574 7.579 2.527 28.86 1.004 3.045 4.049 9.101t4.308 9.101 2.268 8.616 0.518 11.142q0 7.579-8.616 24.812t-7.092 24.293q1.522 8.616 18.721 13.15 10.138 3.045 42.755 9.361t50.367 10.364q12.147 3.045 37.443 11.142t41.751 11.629 28.082 2.041q21.766-3.045 32.649-14.187t11.629-24.293-3.789-29.604-9.62-26.301-10.138-18.462q-61.249-96.166-85.542-122.467-34.399-37.443-57.201-20.243-5.571 4.567-7.579-7.579-1.522-8.098-1.004-19.239 0.518-14.673 5.054-26.301t12.147-23.775 11.142-21.248q4.049-10.623 13.41-36.439t14.933-39.483 15.191-30.868 19.725-27.338q55.679-72.36 62.74-98.692-6.057-56.683-8.098-156.896-1.004-45.541 12.147-76.666t53.639-52.893q19.725-10.623 52.634-10.623 26.819-0.518 53.639 6.834t45.054 20.99q28.86 21.248 46.319 61.475t14.933 74.659q-2.527 48.066 15.191 108.313 17.199 57.201 67.306 110.321 27.823 29.863 50.367 82.497t30.122 96.652q4.049 24.812 2.527 42.754t-6.057 28.082-10.138 11.142q-5.054 1.004-11.888 9.62t-13.669 17.977-20.502 16.94-30.868 7.092q-9.101-0.518-15.936-2.527t-11.402-6.834-6.834-7.839-5.83-10.364-4.567-9.879q-11.142-18.721-20.762-15.191t-14.187 24.812 3.531 49.102q10.138 35.435 0.518 98.692-5.054 32.909 9.101 50.852t36.958 16.712 43.015-17.977q29.863-24.812 45.281-33.654t52.375-21.508q26.819-9.101 38.964-18.462t9.361-17.459-12.665-14.414-26.073-11.888q-16.712-5.571-25.039-24.293t-7.579-36.699 7.839-24.034q0.518 15.677 4.049 28.6t7.352 20.502 10.364 14.414 10.623 9.62 10.883 6.574 8.357 4.794z" p-id="3083"></path></svg>